
<svg width="13" height="25" viewBox="0 0 13 25" fill="none" xmlns="http://www.w3.org/2000/svg">
<path d="M8.184 0.768H8.696C9.208 0.768 9.70933 0.831999 10.2 0.959999C10.6907 1.06667 11.128 1.26933 11.512 1.568C11.896 1.84533 12.2053 2.22933 12.44 2.72C12.6747 3.21067 12.792 3.84 12.792 4.608V15.36C12.792 16.1067 12.6853 16.7467 12.472 17.28C12.2587 17.792 11.9707 18.2187 11.608 18.56C11.2667 18.9013 10.8613 19.1573 10.392 19.328C9.944 19.4773 9.464 19.552 8.952 19.552C8.824 19.552 8.696 19.552 8.568 19.552C8.44 19.5307 8.312 19.5093 8.184 19.488V0.768ZM4.12 15.04C3.62933 15.04 3.16 14.9547 2.712 14.784C2.28533 14.592 1.90133 14.3253 1.56 13.984C1.21867 13.6213 0.941333 13.184 0.728 12.672C0.536 12.1387 0.44 11.52 0.44 10.816V0.768H1.112C2.41333 0.768 3.39467 1.12 4.056 1.824C4.71733 2.50667 5.048 3.62667 5.048 5.184V9.728C5.048 9.984 5.05867 10.2293 5.08 10.464C5.12267 10.6987 5.18667 10.912 5.272 11.104C5.37867 11.2747 5.51733 11.424 5.688 11.552C5.88 11.6587 6.136 11.712 6.456 11.712C6.62667 11.712 6.79733 11.6907 6.968 11.648C7.16 11.584 7.33067 11.488 7.48 11.36C7.48 11.8507 7.416 12.32 7.288 12.768C7.16 13.1947 6.95733 13.5787 6.68 13.92C6.40267 14.2613 6.05067 14.5387 5.624 14.752C5.19733 14.944 4.696 15.04 4.12 15.04ZM2.84 20.96C2.84 20.2987 2.95733 19.7653 3.192 19.36C3.42667 18.9333 3.71467 18.6027 4.056 18.368C4.41867 18.1333 4.792 17.984 5.176 17.92C5.58133 17.8347 5.93333 17.792 6.232 17.792C6.38133 17.792 6.53067 17.8027 6.68 17.824C6.85067 17.824 6.95733 17.8347 7 17.856V19.328C7 19.776 7.10667 20.1067 7.32 20.32C7.53333 20.5333 7.8 20.64 8.12 20.64C8.504 20.64 8.84533 20.512 9.144 20.256C9.208 20.4267 9.24 20.5867 9.24 20.736C9.26133 20.864 9.272 21.0133 9.272 21.184C9.272 21.44 9.208 21.7387 9.08 22.08C8.97333 22.4 8.792 22.7093 8.536 23.008C8.30133 23.2853 7.98133 23.5307 7.576 23.744C7.192 23.936 6.72267 24.032 6.168 24.032C5.592 24.032 5.09067 23.936 4.664 23.744C4.25867 23.552 3.91733 23.3173 3.64 23.04C3.384 22.7413 3.18133 22.4107 3.032 22.048C2.904 21.6853 2.84 21.3227 2.84 20.96Z" fill="white"/>
</svg>
